<?xml version="1.0" encoding="utf-8"?>
<!-- Generator: Adobe Illustrator 21.0.0, SVG Export Plug-In . SVG Version: 6.00 Build 0)  -->
<svg version="1.1" id="Layer_1" xmlns="http://www.w3.org/2000/svg" xmlns:xlink="http://www.w3.org/1999/xlink" x="0px" y="0px"
	 viewBox="0 0 2000 2000" style="enable-background:new 0 0 2000 2000;" xml:space="preserve">
<style type="text/css">
	.st0{clip-path:url(#SVGID_2_);fill:#BCDFFF;}
	.st1{clip-path:url(#SVGID_2_);fill:#EEF7FF;}
	.st2{clip-path:url(#SVGID_2_);fill:#FF0000;}
	.st3{clip-path:url(#SVGID_2_);fill:#FF6300;}
	.st4{clip-path:url(#SVGID_2_);fill:#F9F400;}
	.st5{clip-path:url(#SVGID_2_);fill:#008001;}
	.st6{clip-path:url(#SVGID_2_);fill:#0000FE;}
	.st7{clip-path:url(#SVGID_2_);fill:#4A0282;}
	.st8{clip-path:url(#SVGID_2_);fill:#BA32FE;}
	.st9{fill:#EEF7FF;}
	.st10{fill:#924C00;}
</style>
<g>
	<g>
		<defs>
			<path id="SVGID_1_" d="M237.8,1699.7h482.6l446.7-685.7l149.9,685.7h445.1L1493.6,460.4c0,0-35.4-151.8-217.6-160.1H497.1
				c0,0-108.3,404,396.7,411.3L237.8,1699.7z"/>
		</defs>
		<clipPath id="SVGID_2_">
			<use xlink:href="#SVGID_1_"  style="overflow:visible;"/>
		</clipPath>
		<path class="st0" d="M237.8,1699.7h482.6l446.7-685.7l149.9,685.7h445.1L1493.6,460.4c0,0-35.4-151.8-217.6-160.1H497.1
			c0,0-108.3,404,396.7,411.3L237.8,1699.7z"/>
		<rect x="353.4" y="1229.6" class="st1" width="1388.5" height="246.8"/>
		<polygon class="st2" points="470,426.3 1553.9,387.7 1505,212.8 421.1,261.8 		"/>
		<path class="st3" d="M434.6,411.5l28.1-10.2c0,0,768.4-92.1,1050.6-21.3v44.2l-6.2,38.5h-58.3h-167.6l-463.4,18.7l-318.6,71.8
			L434.6,411.5z"/>
		<path class="st4" d="M434.6,518.2c0,0,968.4-214,1125.3-35.9l-1.8,98.2l-149.9-44.8l-243.7-17.7L841.7,596l-350.9,86.4
			L434.6,518.2z"/>
		<path class="st5" d="M546,617.9c0,0,927.2-281.7,1085.8,8.1l-26.3,39.8l-104.1-7.3l-182.7-33.3l-191.6-12l-255.1,52.6
			c0,0-94.2,37-95.8,38c-1.6,1-141.1,86.4-141.1,86.4L546,617.9z"/>
		<path class="st6" d="M660.6,723l33.3-31.2c0,0,599-238.4,945.7-17.4c0,0-11.7,98.4-12.5,100.7c-0.8,2.3-182.7-25.4-182.7-25.4
			l-190.5-30.8l-142.1,7.8l-231.2,60.5l-60.1,10.5L660.6,723z"/>
		<path class="st7" d="M705.3,816.7l135.6-65.1c0,0,525.3-210.9,875.8,63.8l-40.5,76.8l-92.9-17.4l-53.9-49.8l-110.9-23.4
			l-142.1-15.1l-145.3,7.3L1000,812.6l-207.3,51.3L672,900L705.3,816.7z"/>
		<path class="st8" d="M734.5,906.3c0,0,288.9-121.8,632.6-95.3c343.6,26.6,298.3,442,298.3,442l76.5-109.3l-137.8-287.8
			c0,0-187.9-246.4-872.8,11.3L734.5,906.3z"/>
	</g>
	<rect x="595.5" y="1229.6" class="st9" width="1043.3" height="246.8"/>
	<g>
		<path class="st10" d="M742.6,1328.1v-31.7h-64v12.6c0,12.7-9.9,19.1-29.8,19.1H647v-62.8c0-11.8,9.5-17.8,28.5-17.8h99.2v80.6
			H742.6z M742.6,1264.5h-64v14.9h64V1264.5z"/>
		<path class="st10" d="M879.2,1328.3l-45.2-48.9h49.2v-14.9H819v44.6c0,8.1-3.4,13.6-10.2,16.5c-3.9,1.5-10,2.3-18.3,2.3h-3.1
			v-80.4h98.5c19.2,0,28.7,5.7,28.7,17v15.2c0,10.6-9.1,16.3-27.3,17l30.2,31.7H879.2z"/>
		<path class="st10" d="M963.2,1328.1c-6,0-11.6-1.1-16.9-3.3c-7.5-3.1-11.2-7.6-11.2-13.4v-63.9h2.9c19.2,0,28.7,5.7,28.7,17v63.6
			H963.2z"/>
		<path class="st10" d="M1095.5,1325.3c-4.9,1.9-10.7,2.8-17.5,2.8h-2.9v-31.7h-64v31.7h-3.5c-6,0-11.6-1.1-16.9-3.3
			c-7.5-3.1-11.2-7.6-11.2-13.4V1264c0-2.6,0.8-4.8,2.3-6.7c5-6.5,13.7-9.8,26-9.8h3.3v32.2h64.2v-32.2h2.7c19.2,0,28.7,5.7,28.7,17
			v46.9C1106.7,1317.7,1103,1322.3,1095.5,1325.3z"/>
		<path class="st10" d="M1215.1,1328.1v-31.7h-64v12.6c0,12.7-9.9,19.1-29.8,19.1h-1.9v-62.8c0-11.8,9.5-17.8,28.5-17.8h99.2v80.6
			H1215.1z M1215.1,1264.5h-64v14.9h64V1264.5z"/>
		<path class="st10" d="M1368,1327.8c-12.9,0-22.9-2.8-30-8.5l-33.7-27l-12.7-10v45.6h-31.7v-80.4h6.5c13.1,0,23.1,2.8,30.2,8.5
			l33.7,27c0.3,0.3,0.6,0.6,0.8,0.8c5.3,4,9.2,7,11.7,9v-29.1c0-10.8,9.7-16.2,29.2-16.2h2.5v80.4H1368z"/>
		<path class="st10" d="M1490.1,1264.5h-22.3v46.9c0,7.2-2.5,12-7.5,14.4c-3.2,1.5-8.3,2.3-15.2,2.3h-9.2v-63.6h-48.7v-2.3
			c0-9.8,7.4-14.7,22.1-14.7h106.5v3.6C1515.7,1260,1507.1,1264.5,1490.1,1264.5z"/>
		<path class="st10" d="M601.4,1409.7h-47.3c0-1.7,0.3-3.6,1-5.7c2.5-7.6,8.3-11.3,17.5-11.3h32.5v-14.9h-63.7v44.8
			c0,8.1-3.4,13.6-10.2,16.5c-3.9,1.5-10,2.3-18.3,2.3h-3.1v-80.6h98.3c19.3,0,29,5.7,29,17v14.9
			C637.1,1404.1,625.2,1409.7,601.4,1409.7z"/>
		<path class="st10" d="M745.4,1441.4v-31.7h-64v12.6c0,12.7-9.9,19.1-29.8,19.1h-1.9v-62.8c0-11.8,9.5-17.8,28.5-17.8h99.2v80.6
			H745.4z M745.4,1377.8h-64v14.9h64V1377.8z"/>
		<path class="st10" d="M905.8,1389.6c-6.1,2.2-11.8,3.3-17.1,3.3h-2.9v-15.2h-64v47.1H886v-2.3c0-4.8,4-8.6,12.1-11.3
			c5.7-1.9,11.3-2.8,16.7-2.8h2.7v16c0,11.3-9.6,17-28.7,17h-70.4c-6,0-11.6-1.1-16.9-3.3c-7.5-3.1-11.2-7.6-11.2-13.4v-47.4
			c0-2.6,0.8-4.8,2.3-6.7c5-6.5,13.7-9.8,26-9.8h70.2c19.4,0,29.2,5.7,29.2,17C917.9,1382.8,913.9,1386.7,905.8,1389.6z"/>
		<path class="st10" d="M1028.3,1441.4c-7.2,0-13.3-1.2-18.3-3.6l-8.1-4.4l-40-29.1v21.6c0,10.3-9.6,15.5-28.7,15.5h-2.9v-80.6h31.7
			v35.5l41.2-35.5h35l-43.1,37.9l57.5,42.8H1028.3z"/>
		<path class="st10" d="M1169.1,1441.4v-31.7h-64v12.6c0,12.7-9.9,19.1-29.8,19.1h-1.9v-62.8c0-11.8,9.5-17.8,28.5-17.8h99.2v80.6
			H1169.1z M1169.1,1377.8h-64v14.9h64V1377.8z"/>
		<path class="st10" d="M1341.2,1424.7c0,6.4-3.7,11-11.3,13.9c-4.9,1.9-10.7,2.8-17.5,2.8H1242c-6,0-11.6-1.1-16.9-3.3
			c-7.5-3.1-11.3-7.6-11.3-13.4v-47.4c0-2.6,0.8-4.8,2.3-6.7c5-6.5,13.7-9.8,26-9.8h70.2c19.2,0,28.7,5.7,28.7,17h-95.6v47.1h64.2
			v-15.2H1287c-5.8,0-11.3-0.9-16.5-2.6c-7.5-2.6-11.6-6.4-12.3-11.3v-3.1h82.9V1424.7z"/>
		<path class="st10" d="M1382,1441.4c-6,0-11.6-1.1-16.9-3.3c-7.5-3.1-11.3-7.6-11.3-13.4v-63.9h2.9c19.2,0,28.7,5.7,28.7,17v63.6
			H1382z"/>
		<path class="st10" d="M1506.4,1441.2c-12.9,0-22.9-2.8-30-8.5l-33.7-27l-12.7-10v45.6h-31.7v-80.4h6.5c13.1,0,23.1,2.8,30.2,8.5
			l33.7,27c0.3,0.3,0.6,0.6,0.8,0.8c5.3,4,9.2,7,11.7,9V1377c0-10.8,9.7-16.2,29.2-16.2h2.5v80.4H1506.4z"/>
		<path class="st10" d="M1652.9,1424.7c0,6.4-3.7,11-11.3,13.9c-4.9,1.9-10.7,2.8-17.5,2.8h-70.4c-6,0-11.6-1.1-16.9-3.3
			c-7.5-3.1-11.3-7.6-11.3-13.4v-47.4c0-2.6,0.8-4.8,2.3-6.7c5-6.5,13.7-9.8,26-9.8h70.2c19.2,0,28.7,5.7,28.7,17h-95.6v47.1h64.2
			v-15.2h-22.7c-5.8,0-11.3-0.9-16.5-2.6c-7.5-2.6-11.6-6.4-12.3-11.3v-3.1h82.9V1424.7z"/>
	</g>
</g>
</svg>
