<?xml version="1.0" encoding="utf-8"?>
<!-- Generator: Adobe Illustrator 21.0.0, SVG Export Plug-In . SVG Version: 6.00 Build 0)  -->
<svg version="1.1" id="Layer_1" xmlns="http://www.w3.org/2000/svg" xmlns:xlink="http://www.w3.org/1999/xlink" x="0px" y="0px"
	 viewBox="0 0 2000 1000" style="enable-background:new 0 0 2000 1000;" xml:space="preserve">
<style type="text/css">
	.st0{clip-path:url(#SVGID_2_);fill:#BCDFFF;}
	.st1{clip-path:url(#SVGID_2_);fill:#EEF7FF;}
	.st2{clip-path:url(#SVGID_2_);fill:#FF0000;}
	.st3{clip-path:url(#SVGID_2_);fill:#FF6300;}
	.st4{clip-path:url(#SVGID_2_);fill:#F9F400;}
	.st5{clip-path:url(#SVGID_2_);fill:#008001;}
	.st6{clip-path:url(#SVGID_2_);fill:#0000FE;}
	.st7{clip-path:url(#SVGID_2_);fill:#4A0282;}
	.st8{clip-path:url(#SVGID_2_);fill:#BA32FE;}
	.st9{fill:#EEF7FF;}
	.st10{fill:#924C00;}
	.st11{fill:#C20E1A;}
</style>
<g>
	<g>
		<defs>
			<path id="SVGID_1_" d="M79.6,739.4h163l150.9-231.6l50.7,231.6h150.4l-90.7-418.7c0,0-12-51.3-73.5-54.1H167.2
				c0,0-36.6,136.5,134,138.9L79.6,739.4z"/>
		</defs>
		<clipPath id="SVGID_2_">
			<use xlink:href="#SVGID_1_"  style="overflow:visible;"/>
		</clipPath>
		<path class="st0" d="M79.6,739.4h163l150.9-231.6l50.7,231.6h150.4l-90.7-418.7c0,0-12-51.3-73.5-54.1H167.2
			c0,0-36.6,136.5,134,138.9L79.6,739.4z"/>
		<rect x="118.6" y="580.6" class="st1" width="469" height="83.4"/>
		<polygon class="st2" points="158,309.2 524.2,296.2 507.6,237.1 141.5,253.7 		"/>
		<path class="st3" d="M146.1,304.2l9.5-3.4c0,0,259.6-31.1,354.9-7.2v14.9l-2.1,13h-19.7H432l-156.5,6.3l-107.6,24.3L146.1,304.2z"
			/>
		<path class="st4" d="M146.1,340.3c0,0,327.1-72.3,380.1-12.1l-0.6,33.2l-50.7-15.1l-82.3-6l-109,26.4l-118.5,29.2L146.1,340.3z"/>
		<path class="st5" d="M183.7,374c0,0,313.2-95.1,366.8,2.7l-8.9,13.5l-35.2-2.5l-61.7-11.3l-64.7-4l-86.2,17.8
			c0,0-31.8,12.5-32.4,12.8s-47.7,29.2-47.7,29.2L183.7,374z"/>
		<path class="st6" d="M222.4,409.5l11.3-10.6c0,0,202.3-80.5,319.5-5.9c0,0-4,33.2-4.2,34c-0.3,0.8-61.7-8.6-61.7-8.6l-64.4-10.4
			l-48,2.6l-78.1,20.4l-20.3,3.6L222.4,409.5z"/>
		<path class="st7" d="M237.5,441.1l45.8-22c0,0,177.5-71.2,295.9,21.6l-13.7,25.9l-31.4-5.9L515.9,444l-37.5-7.9l-48-5.1l-49.1,2.5
			l-44.3,6.3l-70,17.3l-40.8,12.2L237.5,441.1z"/>
		<path class="st8" d="M247.4,471.4c0,0,97.6-41.2,213.7-32.2s100.8,149.3,100.8,149.3l25.9-36.9l-46.5-97.2
			c0,0-63.5-83.2-294.8,3.8L247.4,471.4z"/>
	</g>
	<rect x="200.4" y="580.6" class="st9" width="352.4" height="83.4"/>
	<g>
		<path class="st10" d="M250.1,613.9v-10.7h-21.6v4.3c0,4.3-3.4,6.4-10.1,6.4h-0.6v-21.2c0-4,3.2-6,9.6-6h33.5v27.2H250.1z
			 M250.1,592.4h-21.6v5h21.6V592.4z"/>
		<path class="st10" d="M296.3,614L281,597.4h16.6v-5h-21.7v15.1c0,2.7-1.2,4.6-3.4,5.6c-1.3,0.5-3.4,0.8-6.2,0.8h-1.1v-27.1h33.3
			c6.5,0,9.7,1.9,9.7,5.7v5.1c0,3.6-3.1,5.5-9.2,5.7l10.2,10.7H296.3z"/>
		<path class="st10" d="M324.6,613.9c-2,0-3.9-0.4-5.7-1.1c-2.5-1-3.8-2.6-3.8-4.5v-21.6h1c6.5,0,9.7,1.9,9.7,5.7v21.5H324.6z"/>
		<path class="st10" d="M369.3,612.9c-1.6,0.6-3.6,1-5.9,1h-1v-10.7h-21.6v10.7h-1.2c-2,0-3.9-0.4-5.7-1.1c-2.5-1-3.8-2.6-3.8-4.5
			v-16c0-0.9,0.3-1.6,0.8-2.3c1.7-2.2,4.6-3.3,8.8-3.3h1.1v10.9h21.7v-10.9h0.9c6.5,0,9.7,1.9,9.7,5.7v15.8
			C373.1,610.4,371.8,611.9,369.3,612.9z"/>
		<path class="st10" d="M409.7,613.9v-10.7h-21.6v4.3c0,4.3-3.4,6.4-10.1,6.4h-0.6v-21.2c0-4,3.2-6,9.6-6h33.5v27.2H409.7z
			 M409.7,592.4h-21.6v5h21.6V592.4z"/>
		<path class="st10" d="M461.4,613.8c-4.4,0-7.7-1-10.1-2.9l-11.4-9.1l-4.3-3.4v15.4h-10.7v-27.1h2.2c4.4,0,7.8,1,10.2,2.9l11.4,9.1
			c0.1,0.1,0.2,0.2,0.3,0.3c1.8,1.3,3.1,2.3,3.9,3v-9.8c0-3.7,3.3-5.5,9.9-5.5h0.8v27.1H461.4z"/>
		<path class="st10" d="M502.6,592.4h-7.5v15.8c0,2.4-0.8,4.1-2.5,4.9c-1.1,0.5-2.8,0.8-5.1,0.8h-3.1v-21.5h-16.5v-0.8
			c0-3.3,2.5-5,7.5-5h36v1.2C511.3,590.9,508.4,592.4,502.6,592.4z"/>
		<path class="st10" d="M202.4,641.5h-16c0-0.6,0.1-1.2,0.4-1.9c0.8-2.6,2.8-3.8,5.9-3.8h11v-5h-21.5v15.1c0,2.7-1.2,4.6-3.4,5.6
			c-1.3,0.5-3.4,0.8-6.2,0.8h-1.1v-27.2h33.2c6.5,0,9.8,1.9,9.8,5.7v5C214.5,639.5,210.4,641.5,202.4,641.5z"/>
		<path class="st10" d="M251,652.2v-10.7h-21.6v4.3c0,4.3-3.4,6.4-10.1,6.4h-0.6v-21.2c0-4,3.2-6,9.6-6h33.5v27.2H251z M251,630.7
			h-21.6v5H251V630.7z"/>
		<path class="st10" d="M305.2,634.7c-2.1,0.8-4,1.1-5.8,1.1h-1v-5.1h-21.6v15.9h21.7v-0.8c0-1.6,1.4-2.9,4.1-3.8
			c1.9-0.6,3.8-1,5.6-1h0.9v5.4c0,3.8-3.2,5.7-9.7,5.7h-23.8c-2,0-3.9-0.4-5.7-1.1c-2.5-1-3.8-2.6-3.8-4.5v-16
			c0-0.9,0.3-1.6,0.8-2.3c1.7-2.2,4.6-3.3,8.8-3.3h23.7c6.6,0,9.9,1.9,9.9,5.7C309.3,632.4,308,633.7,305.2,634.7z"/>
		<path class="st10" d="M346.6,652.2c-2.4,0-4.5-0.4-6.2-1.2l-2.7-1.5l-13.5-9.8v7.3c0,3.5-3.2,5.2-9.7,5.2h-1v-27.2h10.7v12
			l13.9-12h11.8l-14.6,12.8l19.4,14.4H346.6z"/>
		<path class="st10" d="M394.2,652.2v-10.7h-21.6v4.3c0,4.3-3.4,6.4-10.1,6.4h-0.6v-21.2c0-4,3.2-6,9.6-6H405v27.2H394.2z
			 M394.2,630.7h-21.6v5h21.6V630.7z"/>
		<path class="st10" d="M452.3,646.5c0,2.1-1.3,3.7-3.8,4.7c-1.6,0.6-3.6,1-5.9,1h-23.8c-2,0-3.9-0.4-5.7-1.1
			c-2.5-1-3.8-2.6-3.8-4.5v-16c0-0.9,0.3-1.6,0.8-2.3c1.7-2.2,4.6-3.3,8.8-3.3h23.7c6.5,0,9.7,1.9,9.7,5.7H420v15.9h21.7v-5.1H434
			c-2,0-3.8-0.3-5.6-0.9c-2.5-0.9-3.9-2.1-4.2-3.8v-1h28V646.5z"/>
		<path class="st10" d="M466.1,652.2c-2,0-3.9-0.4-5.7-1.1c-2.5-1-3.8-2.6-3.8-4.5v-21.6h1c6.5,0,9.7,1.9,9.7,5.7v21.5H466.1z"/>
		<path class="st10" d="M508.1,652.1c-4.4,0-7.7-1-10.1-2.9l-11.4-9.1l-4.3-3.4v15.4h-10.7v-27.1h2.2c4.4,0,7.8,1,10.2,2.9l11.4,9.1
			c0.1,0.1,0.2,0.2,0.3,0.3c1.8,1.3,3.1,2.3,3.9,3v-9.8c0-3.7,3.3-5.5,9.9-5.5h0.8v27.1H508.1z"/>
		<path class="st10" d="M557.6,646.5c0,2.1-1.3,3.7-3.8,4.7c-1.6,0.6-3.6,1-5.9,1h-23.8c-2,0-3.9-0.4-5.7-1.1
			c-2.5-1-3.8-2.6-3.8-4.5v-16c0-0.9,0.3-1.6,0.8-2.3c1.7-2.2,4.6-3.3,8.8-3.3h23.7c6.5,0,9.7,1.9,9.7,5.7h-32.3v15.9H547v-5.1h-7.7
			c-2,0-3.8-0.3-5.6-0.9c-2.5-0.9-3.9-2.1-4.2-3.8v-1h28V646.5z"/>
	</g>
	<g>
		<path class="st11" d="M916.5,490.6v-35h-70.7v14c0,14.1-11,21.1-33,21.1h-2.1V421c0-13.1,10.5-19.7,31.6-19.7H952v89.2H916.5z
			 M916.5,420.2h-70.7v16.5h70.7V420.2z"/>
		<path class="st11" d="M1067.7,490.8l-50-54.1h54.4v-16.5h-71v49.3c0,8.9-3.8,15-11.3,18.2c-4.3,1.7-11.1,2.6-20.3,2.6h-3.5v-88.9
			h109c21.2,0,31.8,6.3,31.8,18.8V437c0,11.8-10.1,18-30.2,18.8l33.4,35H1067.7z"/>
		<path class="st11" d="M1160.6,490.6c-6.6,0-12.8-1.2-18.7-3.7c-8.3-3.4-12.4-8.4-12.4-14.8v-70.7h3.2c21.2,0,31.8,6.3,31.8,18.8
			v70.4H1160.6z"/>
		<path class="st11" d="M1306.9,487.4c-5.4,2.1-11.8,3.1-19.4,3.1h-3.2v-35h-70.7v35h-3.9c-6.6,0-12.8-1.2-18.7-3.7
			c-8.3-3.4-12.4-8.4-12.4-14.8v-52.4c0-2.9,0.8-5.3,2.5-7.4c5.5-7.2,15.1-10.8,28.8-10.8h3.7V437h71v-35.6h3
			c21.2,0,31.8,6.3,31.8,18.8V472C1319.3,479.1,1315.2,484.2,1306.9,487.4z"/>
		<path class="st11" d="M1439.2,490.6v-35h-70.8v14c0,14.1-11,21.1-33,21.1h-2.1V421c0-13.1,10.5-19.7,31.6-19.7h109.7v89.2H1439.2z
			 M1439.2,420.2h-70.8v16.5h70.8V420.2z"/>
		<path class="st11" d="M1608.3,490.3c-14.3,0-25.3-3.1-33.2-9.4l-37.3-29.9l-14.1-11.1v50.4h-35v-88.9h7.1
			c14.4,0,25.6,3.1,33.4,9.4l37.3,29.9c0.3,0.4,0.6,0.7,0.9,0.9c5.8,4.4,10.1,7.7,12.9,10v-32.2c0-12,10.8-17.9,32.3-17.9h2.8v88.9
			H1608.3z"/>
		<path class="st11" d="M1743.4,420.2h-24.7V472c0,8-2.8,13.3-8.3,16c-3.5,1.7-9.1,2.6-16.8,2.6h-10.1v-70.4h-53.9v-2.6
			c0-10.8,8.1-16.2,24.4-16.2h117.8v4C1771.7,415.2,1762.3,420.2,1743.4,420.2z"/>
		<path class="st11" d="M760.4,580.9h-52.3c0-1.9,0.4-4,1.2-6.3c2.8-8.4,9.2-12.5,19.4-12.5h36v-16.5H694v49.6
			c0,8.9-3.8,15-11.3,18.2c-4.3,1.7-11.1,2.6-20.3,2.6H659v-89.2h108.8c21.4,0,32,6.3,32,18.8v16.5
			C799.8,574.6,786.6,580.9,760.4,580.9z"/>
		<path class="st11" d="M919.6,615.9v-35h-70.8v14c0,14.1-11,21.1-33,21.1h-2.1v-69.5c0-13.1,10.5-19.7,31.6-19.7h109.7v89.2H919.6z
			 M919.6,545.5h-70.8v16.5h70.8V545.5z"/>
		<path class="st11" d="M1097.1,558.7c-6.8,2.5-13.1,3.7-18.9,3.7h-3.2v-16.8h-70.8v52.1h71v-2.6c0-5.3,4.5-9.5,13.4-12.5
			c6.3-2.1,12.4-3.1,18.4-3.1h3v17.7c0,12.5-10.6,18.8-31.8,18.8h-77.9c-6.6,0-12.8-1.2-18.7-3.7c-8.3-3.4-12.4-8.4-12.4-14.8V545
			c0-2.9,0.8-5.3,2.5-7.4c5.5-7.2,15.1-10.8,28.8-10.8h77.7c21.5,0,32.3,6.3,32.3,18.8C1110.4,551.1,1106,555.4,1097.1,558.7z"/>
		<path class="st11" d="M1232.6,615.9c-8,0-14.7-1.3-20.3-4l-9-4.8l-44.2-32.2v23.9c0,11.4-10.6,17.1-31.8,17.1h-3.2v-89.2h35v39.3
			l45.6-39.3h38.7l-47.7,41.9l63.6,47.3H1232.6z"/>
		<path class="st11" d="M1388.4,615.9v-35h-70.7v14c0,14.1-11,21.1-33,21.1h-2.1v-69.5c0-13.1,10.5-19.7,31.6-19.7h109.7v89.2
			H1388.4z M1388.4,545.5h-70.7v16.5h70.7V545.5z"/>
		<path class="st11" d="M1578.7,597.4c0,7-4.1,12.2-12.4,15.4c-5.4,2.1-11.8,3.1-19.4,3.1H1469c-6.6,0-12.8-1.2-18.7-3.7
			c-8.3-3.4-12.4-8.4-12.4-14.8V545c0-2.9,0.8-5.3,2.5-7.4c5.5-7.2,15.1-10.8,28.8-10.8h77.7c21.2,0,31.8,6.3,31.8,18.8h-105.8v52.1
			h71v-16.8h-25.1c-6.5,0-12.5-0.9-18.2-2.8c-8.3-2.8-12.8-7-13.6-12.5v-3.4h91.7V597.4z"/>
		<path class="st11" d="M1623.9,615.9c-6.6,0-12.8-1.2-18.7-3.7c-8.3-3.4-12.4-8.4-12.4-14.8v-70.7h3.2c21.2,0,31.8,6.3,31.8,18.8
			v70.4H1623.9z"/>
		<path class="st11" d="M1761.4,615.6c-14.3,0-25.3-3.1-33.2-9.4l-37.3-29.9l-14.1-11.1v50.4h-35v-88.9h7.1
			c14.4,0,25.6,3.1,33.4,9.4l37.3,29.9c0.3,0.4,0.6,0.7,0.9,0.9c5.8,4.4,10.1,7.7,12.9,10v-32.2c0-12,10.8-17.9,32.3-17.9h2.8v88.9
			H1761.4z"/>
		<path class="st11" d="M1923.5,597.4c0,7-4.1,12.2-12.4,15.4c-5.4,2.1-11.8,3.1-19.4,3.1h-77.9c-6.6,0-12.8-1.2-18.7-3.7
			c-8.3-3.4-12.4-8.4-12.4-14.8V545c0-2.9,0.8-5.3,2.5-7.4c5.5-7.2,15.1-10.8,28.8-10.8h77.7c21.2,0,31.8,6.3,31.8,18.8h-105.8v52.1
			h71v-16.8h-25.1c-6.5,0-12.5-0.9-18.2-2.8c-8.3-2.8-12.8-7-13.6-12.5v-3.4h91.7V597.4z"/>
	</g>
</g>
</svg>
